<svg width="64" height="49" viewBox="0 0 64 49" fill="none" xmlns="http://www.w3.org/2000/svg">
<path d="M58.0001 48.5521C61.2501 48.5521 64.0001 45.9271 64.0001 42.5521V6.55206C64.0001 3.30206 61.2501 0.552063 58.0001 0.552063H6.00007C2.62507 0.552063 6.86646e-05 3.30206 6.86646e-05 6.55206V42.5521C6.86646e-05 45.9271 2.62507 48.5521 6.00007 48.5521H58.0001ZM14.0001 7.55206C17.7501 7.55206 21.0001 10.8021 21.0001 14.5521C21.0001 18.4271 17.7501 21.5521 14.0001 21.5521C10.1251 21.5521 7.00007 18.4271 7.00007 14.5521C7.00007 10.8021 10.1251 7.55206 14.0001 7.55206ZM8.00007 40.5521V34.5521L16.8751 25.6771C17.5001 25.0521 18.3751 25.0521 19.0001 25.6771L26.0001 32.5521L42.8751 15.6771C43.5001 15.0521 44.3751 15.0521 45.0001 15.6771L56.0001 26.5521V40.5521H8.00007Z" fill="#2B2B2B"/>
</svg>
